<svg xmlns="http://www.w3.org/2000/svg" viewBox="0 0 560 360" role="img" aria-labelledby="title desc">
  <title id="title">Tandem Connected Intent logo</title>
  <desc id="desc">The option 3 Connected Intent logo direction: an ampersand-like connection mark above the Tandem wordmark.</desc>
  <rect width="560" height="360" rx="28" fill="#fffaf6"/>
  <g transform="translate(214 54)">
    <path
      d="M66 69C51 53 28 56 20 75C13 95 29 112 50 105C65 100 73 85 66 69ZM66 69C81 85 104 82 112 63C119 43 103 26 82 33C67 38 59 53 66 69Z"
      fill="none"
      stroke="#2f2421"
      stroke-width="8"
      stroke-linecap="round"
      stroke-linejoin="round"
    />
    <path
      d="M68 69C53 49 54 27 71 23C88 19 100 35 89 52C78 68 56 73 47 89C39 104 53 117 68 103"
      fill="none"
      stroke="#c85f68"
      stroke-width="8"
      stroke-linecap="round"
      stroke-linejoin="round"
    />
    <path
      d="M67 69C77 82 87 94 100 106"
      fill="none"
      stroke="#c85f68"
      stroke-width="8"
      stroke-linecap="round"
      stroke-linejoin="round"
    />
  </g>
  <text
    x="280"
    y="235"
    text-anchor="middle"
    fill="#2f2421"
    font-family="Georgia, 'Times New Roman', serif"
    font-size="76"
    font-weight="500"
    letter-spacing="0"
  >Tandem</text>
  <text
    x="280"
    y="282"
    text-anchor="middle"
    fill="#c85f68"
    font-family="Inter, Arial, sans-serif"
    font-size="19"
    font-weight="500"
    letter-spacing="1.2"
  >Dating for complementary ambition.</text>
  <g transform="translate(176 310)">
    <circle cx="0" cy="0" r="12" fill="#f0dfc8"/>
    <circle cx="50" cy="0" r="12" fill="#2f2421"/>
    <circle cx="100" cy="0" r="12" fill="#c85f68"/>
    <circle cx="150" cy="0" r="12" fill="#7f1930"/>
    <circle cx="200" cy="0" r="12" fill="#91a087"/>
  </g>
</svg>
